:FULLY-SPECIFIED
:FORCE-ALL-JOINTS-BE-3DOF
:DEGREES
102
root 7.26376 16.7047 -26.8088 2.71193 11.2586 -3.66991
lfemur -26.0155 -1.31854 -11.5225
ltibia 38.135 -0 0
lfoot -17.2581 -4.75184 -0.0497132
ltoes 23.077 -0 0
rfemur -36.6017 -4.32614 4.36241
rtibia 80.041 -0 0
rfoot 24.5806 17.2581 2.47865
rtoes 14.8998 -0 0
lowerback 2.34177 1.60379 0.241212
upperback -0.565031 2.19216 1.94716
thorax -1.92098 1.10079 1.82112
lowerneck -10.625 -4.78774 2.42121
upperneck -1.11439 -6.65096 0.849148
head 1.38785 -3.29726 -0.424587
lclavicle 3.05631e-15 1.64991e-14 0
lhumerus -46.4059 -9.9735 93.4112
lradius 48.7237 -0 0
lwrist 14.5356 0 0
lhand 6.00301 8.14403 0.105085
lfingers 7.12502 -0 0
lthumb 31.3125 35.3582 0.0622276
rclavicle 3.05631e-15 1.64991e-14 0
rhumerus -41.8202 1.50584 -71.6779
rradius 49.8905 -0 0
rwrist 4.28647 0 0
rhand -21.9263 -16.3516 -0.0105516
rfingers 7.12502 -0 0
rthumb 4.47995 -46.2857 -0.010265
103
root 7.32278 16.7102 -26.7742 2.36101 11.5826 -3.49755
lfemur -25.3288 -1.72057 -11.8279
ltibia 37.8665 -0 0
lfoot -17.2524 -5.53533 -0.0374103
ltoes 23.5133 -0 0
rfemur -37.9675 -4.45238 3.38193
rtibia 82.816 -0 0
rfoot 27.2741 18.7935 1.79553
rtoes 16.0805 -0 0
lowerback 2.59584 1.47045 0.0731169
upperback -0.48729 2.00946 1.98745
thorax -1.99487 1.01279 1.94656
lowerneck -10.6303 -4.81332 2.35255
upperneck -0.919964 -6.68106 0.834605
head 1.45208 -3.30952 -0.423233
lclavicle 3.05631e-15 1.64991e-14 0
lhumerus -46.5115 -10.16 93.5718
lradius 48.8873 -0 0
lwrist 14.7438 0 0
lhand 6.73068 8.41109 0.0754409
lfingers 7.12502 -0 0
lthumb 32.0093 35.5231 0.0447023
rclavicle 3.05631e-15 1.64991e-14 0
rhumerus -42.0907 1.43308 -70.8891
rradius 50.0941 -0 0
rwrist 4.15699 0 0
rhand -21.9681 -16.1847 -0.00865096
rfingers 7.12502 -0 0
rthumb 4.43959 -46.1193 -0.00841338
104
root 7.38651 16.7164 -26.7362 2.05393 11.8649 -3.33334
lfemur -24.6961 -2.05026 -12.1379
ltibia 37.6507 -0 0
lfoot -17.2617 -6.29897 -0.0247687
ltoes 23.9582 -0 0
rfemur -39.2039 -4.5718 2.50478
rtibia 85.2969 -0 0
rfoot 29.6575 20.1203 1.13144
rtoes 17.1315 -0 0
lowerback 2.81848 1.34647 -0.0776959
upperback -0.416175 1.83886 2.01872
thorax -2.05666 0.930483 2.0542
lowerneck -10.6332 -4.8303 2.28645
upperneck -0.748659 -6.69965 0.825018
head 1.50863 -3.31626 -0.419964
lclavicle 3.05631e-15 1.64991e-14 0
lhumerus -46.5943 -10.3453 93.7274
lradius 49.0279 -0 0
lwrist 14.9205 0 0
lhand 7.36852 8.64667 0.0469387
lfingers 7.12502 -0 0
lthumb 32.6201 35.6688 0.0278361
rclavicle 3.05631e-15 1.64991e-14 0
rhumerus -42.3416 1.36478 -70.2022
rradius 50.2643 -0 0
rwrist 4.0432 0 0
rhand -22.0166 -16.0436 -0.0062531
rfingers 7.12502 -0 0
rthumb 4.39281 -45.9788 -0.00607966
105
root 7.45558 16.7234 -26.6942 1.79601 12.1002 -3.17842
lfemur -24.127 -2.30072 -12.4481
ltibia 37.4932 -0 0
lfoot -17.2867 -7.03506 -0.0121719
ltoes 24.4086 -0 0
rfemur -40.2926 -4.67486 1.74404
rtibia 87.4434 -0 0
rfoot 31.6974 21.2248 0.521559
rtoes 18.0355 -0 0
lowerback 3.00561 1.23324 -0.208615
upperback -0.352659 1.68261 2.04019
thorax -2.10494 0.854855 2.1419
lowerneck -10.6334 -4.83797 2.22364
upperneck -0.603467 -6.70584 0.820871
head 1.55652 -3.31706 -0.414667
lclavicle 3.05631e-15 1.64991e-14 0
lhumerus -46.6521 -10.5279 93.8764
lradius 49.1426 -0 0
lwrist 15.0622 0 0
lhand 7.90527 8.84683 0.0212435
lfingers 7.12502 -0 0
lthumb 33.1341 35.7926 0.0126117
rclavicle 3.05631e-15 1.64991e-14 0
rhumerus -42.5692 1.30047 -69.6296
rradius 50.3977 -0 0
rwrist 3.94709 0 0
rhand -22.0717 -15.9309 -0.00336282
rfingers 7.12502 -0 0
rthumb 4.33955 -45.8668 -0.00326872
106
root 7.53062 16.7313 -26.6477 1.59258 12.283 -3.03397
lfemur -23.6313 -2.46527 -12.7543
ltibia 37.3992 0 0
lfoot -17.3285 -7.73592 0
ltoes 24.8613 0 0
rfemur -41.2156 -4.75181 1.11259
rtibia 89.2151 0 0
rfoot 33.361 22.0951 0
rtoes 18.775 0 0
lowerback 3.15315 1.13213 -0.317021
upperback -0.297715 1.54298 2.05108
thorax -2.13833 0.786902 2.20754
lowerneck -10.6307 -4.8356 2.16485
upperneck -0.487372 -6.69874 0.822634
head 1.59477 -3.31149 -0.407235
lclavicle -1.05232e-14 -1.78906e-15 0
lhumerus -46.6826 -10.7064 94.0168
lradius 49.2289 0 0
lwrist 15.1652 0 0
lhand 8.32967 9.00768 0
lfingers 7.12502 0 0
lthumb 33.5404 35.8923 0
rclavicle -1.05232e-14 -1.78906e-15 0
rhumerus -42.7698 1.23965 -69.1841
rradius 50.4904 0 0
rwrist 3.87067 0 0
rhand -22.1336 -15.8497 0
rfingers 7.12502 0 0
rthumb 4.27979 -45.7864 0
107
root 7.60536 16.7404 -26.6028 1.09178 12.3361 -2.84961
lfemur -22.7652 -2.41884 -13.0807
ltibia 36.9991 -0 0
lfoot -17.2232 -8.07143 0.00203408
ltoes 25.1458 -0 0
rfemur -42.6826 -5.64336 1.28922
rtibia 89.5151 -0 0
rfoot 33.7926 22.8863 -0.48227
rtoes 17.9814 -0 0
lowerback 3.61873 0.988245 -0.51695
upperback -0.116657 1.34284 2.0466
thorax -2.20385 0.68907 2.32493
lowerneck -10.6819 -4.76704 2.10689
upperneck -0.334202 -6.60508 0.822843
head 1.65547 -3.26266 -0.395313
lclavicle -1.05232e-14 -1.78906e-15 0
lhumerus -46.6124 -10.8968 94.0256
lradius 49.3673 -0 0
lwrist 15.2404 0 0
lhand 8.68796 9.06699 -0.020883
lfingers 7.12502 -0 0
lthumb 33.8839 35.905 -0.011975
rclavicle -1.05232e-14 -1.78906e-15 0
rhumerus -42.8007 0.936507 -68.3438
rradius 51.0739 -0 0
rwrist 3.44399 0 0
rhand -21.2652 -15.798 -0.015015
rfingers 7.12502 -0 0
rthumb 5.11333 -45.6454 0.00945551
108
root 7.67327 16.751 -26.5655 0.539617 12.3432 -2.64347
lfemur -21.8081 -2.27323 -13.4476
ltibia 36.569 -0 0
lfoot -17.1044 -8.395 0.00405574
ltoes 25.4589 -0 0
rfemur -44.272 -6.68374 1.6922
rtibia 89.4214 -0 0
rfoot 33.8787 23.5986 -0.918609
rtoes 16.8082 -0 0
lowerback 4.14488 0.831721 -0.735356
upperback 0.0938398 1.1229 2.03075
thorax -2.26909 0.581189 2.44507
lowerneck -10.7427 -4.67478 2.04396
upperneck -0.18034 -6.47964 0.828218
head 1.7187 -3.1979 -0.379454
lclavicle -1.05232e-14 -1.78906e-15 0
lhumerus -46.5002 -11.112 94.017
lradius 49.506 -0 0
lwrist 15.2918 0 0
lhand 8.99815 9.09361 -0.0395059
lfingers 7.12502 -0 0
lthumb 34.1815 35.8923 -0.0224021
rclavicle -1.05232e-14 -1.78906e-15 0
rhumerus -42.804 0.570695 -67.4568
rradius 51.7483 -0 0
rwrist 2.94328 0 0
rhand -20.2002 -15.7683 -0.0339239
rfingers 7.12502 -0 0
rthumb 6.1357 -45.5057 0.0188137
109
root 7.73461 16.7626 -26.5354 -0.0565848 12.3079 -2.41794
lfemur -20.7741 -2.03395 -13.847
ltibia 36.1143 -0 0
lfoot -16.9738 -8.70506 0.00616014
ltoes 25.7966 -0 0
rfemur -45.9732 -7.84514 2.31528
rtibia 88.9607 -0 0
rfoot 33.6429 24.2356 -1.30262
rtoes 15.2887 -0 0
lowerback 4.72392 0.6652 -0.969901
upperback 0.330368 0.886142 2.00409
thorax -2.33365 0.464718 2.56694
lowerneck -10.812 -4.56107 1.9768
upperneck -0.0269516 -6.32546 0.838517
head 1.78383 -3.11872 -0.360001
lclavicle -1.05232e-14 -1.78906e-15 0
lhumerus -46.3496 -11.3489 93.9917
lradius 49.6441 -0 0
lwrist 15.3205 0 0
lhand 9.26116 9.08954 -0.05561
lfingers 7.12502 -0 0
lthumb 34.4338 35.8557 -0.0311319
rclavicle -1.05232e-14 -1.78906e-15 0
rhumerus -42.7835 0.148399 -66.5327
rradius 52.5025 -0 0
rwrist 2.37707 0 0
rhand -18.9593 -15.7596 -0.0559367
rfingers 7.12502 -0 0
rthumb 7.327 -45.368 0.0272621
110
root 7.78965 16.7751 -26.5115 -0.689523 12.2337 -2.17533
lfemur -19.6774 -1.70676 -14.2706
ltibia 35.6399 -0 0
lfoot -16.8332 -9.00002 0.00840785
ltoes 26.1546 -0 0
rfemur -47.7763 -9.09943 3.15138
rtibia 88.1594 -0 0
rfoot 33.1084 24.7996 -1.62975
rtoes 13.4567 -0 0
lowerback 5.34818 0.491257 -1.21819
upperback 0.589524 0.635564 1.96721
thorax -2.39711 0.341114 2.68948
lowerneck -10.8888 -4.42817 1.90612
upperneck 0.124806 -6.14556 0.853476
head 1.85026 -3.02667 -0.337301
lclavicle -1.05232e-14 -1.78906e-15 0
lhumerus -46.1638 -11.6041 93.9508
lradius 49.7805 -0 0
lwrist 15.3278 0 0
lhand 9.47788 9.05675 -0.0690327
lfingers 7.12502 -0 0
lthumb 34.6419 35.7973 -0.0380874
rclavicle -1.05232e-14 -1.78906e-15 0
rhumerus -42.7428 -0.324144 -65.5815
rradius 53.3257 -0 0
rwrist 1.75388 0 0
rhand -17.5631 -15.7707 -0.0801009
rfingers 7.12502 -0 0
rthumb 8.66734 -45.2333 0.0341386
111
root 7.83864 16.7883 -26.4934 -1.3519 12.1241 -1.91801
lfemur -18.5321 -1.29785 -14.7103
ltibia 35.1509 -0 0
lfoot -16.6843 -9.27832 0.0108255
ltoes 26.5288 -0 0
rfemur -49.6717 -10.4186 4.19216
rtibia 87.0443 -0 0
rfoot 32.2984 25.2917 -1.89709
rtoes 11.3457 -0 0
lowerback 6.00996 0.312381 -1.47775
upperback 0.867907 0.374151 1.92075
thorax -2.45903 0.21183 2.81166
lowerneck -10.972 -4.27833 1.83267
upperneck 0.273784 -5.94295 0.872807
head 1.91738 -2.92327 -0.311704
lclavicle -1.05232e-14 -1.78906e-15 0
lhumerus -45.9464 -11.8744 93.8949
lradius 49.9142 -0 0
lwrist 15.3148 0 0
lhand 9.64921 8.99724 -0.0796966
lfingers 7.12502 -0 0
lthumb 34.8065 35.7186 -0.0432556
rclavicle -1.05232e-14 -1.78906e-15 0
rhumerus -42.6854 -0.840621 -64.6129
rradius 54.2071 -0 0
rwrist 1.08224 0 0
rhand -16.0324 -15.8007 -0.105355
rfingers 7.12502 -0 0
rthumb 10.1368 -45.1025 0.0389401
112
root 7.88185 16.8018 -26.4803 -2.03642 11.9826 -1.64836
lfemur -17.3521 -0.81381 -15.1584
ltibia 34.6525 -0 0
lfoot -16.529 -9.53836 0.0134071
ltoes 26.915 -0 0
rfemur -51.649 -11.775 5.42776
rtibia 85.6418 -0 0
rfoot 31.236 25.7119 -2.1032
rtoes 8.98909 -0 0
lowerback 6.7015 0.130955 -1.74602
upperback 1.16211 0.104892 1.86536
thorax -2.51898 0.0783111 2.93242
lowerneck -11.0608 -4.11381 1.75717
upperneck 0.418835 -5.72067 0.896193
head 1.98455 -2.81004 -0.283567
lclavicle -1.05232e-14 -1.78906e-15 0
lhumerus -45.7006 -12.1564 93.8251
lradius 50.044 -0 0
lwrist 15.2827 0 0
lhand 9.77607 8.91296 -0.0875999
lfingers 7.12502 -0 0
lthumb 34.9285 35.6216 -0.0466788
rclavicle -1.05232e-14 -1.78906e-15 0
rhumerus -42.6143 -1.39463 -63.6367
rradius 55.1356 -0 0
rwrist 0.370676 0 0
rhand -14.3879 -15.8485 -0.130579
rfingers 7.12502 -0 0
rthumb 11.7156 -44.9767 0.0413287
113
root 7.91954 16.8154 -26.4715 -2.73578 11.8123 -1.36883
lfemur -16.1512 -0.261685 -15.6073
ltibia 34.1498 -0 0
lfoot -16.3689 -9.77856 0.0161154
ltoes 27.309 -0 0
rfemur -53.6972 -13.142 6.84643
rtibia 83.9785 -0 0
rfoot 29.9439 26.0595 -2.24799
rtoes 6.42056 -0 0
lowerback 7.41505 -0.0507613 -2.02035
upperback 1.46873 -0.169232 1.80177
thorax -2.5765 -0.0579972 3.05069
lowerneck -11.1539 -3.93684 1.68037
upperneck 0.558817 -5.48172 0.923291
head 2.05118 -2.68852 -0.253252
lclavicle -1.05232e-14 -1.78906e-15 0
lhumerus -45.43 -12.4467 93.7424
lradius 50.1691 -0 0
lwrist 15.2328 0 0
lhand 9.85934 8.80589 -0.0928065
lfingers 7.12502 -0 0
lthumb 35.0088 35.508 -0.0484465
rclavicle -1.05232e-14 -1.78906e-15 0
rhumerus -42.532 -1.97968 -62.6625
rradius 56.1004 -0 0
rwrist -0.372273 0 0
rhand -12.6503 -15.9127 -0.15464
rfingers 7.12502 -0 0
rthumb 13.3837 -44.8568 0.0411346
114
root 7.95196 16.8288 -26.4664 -3.44268 11.6165 -1.08197
lfemur -14.9427 0.351005 -16.0501
ltibia 33.6478 -0 0
lfoot -16.2058 -9.99735 0.0188844
ltoes 27.7066 -0 0
rfemur -55.8029 -14.4942 8.43415
rtibia 82.081 -0 0
rfoot 28.4446 26.3327 -2.3326
rtoes 3.67362 -0 0
lowerback 8.14278 -0.230642 -2.29799
upperback 1.78433 -0.44525 1.73078
thorax -2.63114 -0.195655 3.16542
lowerneck -11.2504 -3.74968 1.60302
upperneck 0.692589 -5.22912 0.953728
head 2.11663 -2.56022 -0.221127
lclavicle -1.05232e-14 -1.78906e-15 0
lhumerus -45.1379 -12.7421 93.6476
lradius 50.2882 -0 0
lwrist 15.1661 0 0
lhand 9.8999 8.67799 -0.0954363
lfingers 7.12502 -0 0
lthumb 35.0481 35.3796 -0.0486878
rclavicle -1.05232e-14 -1.78906e-15 0
rhumerus -42.4408 -2.58916 -61.7
rradius 57.0907 -0 0
rwrist -1.13808 0 0
rhand -10.8403 -15.9923 -0.17644
rfingers 7.12502 -0 0
rthumb 15.1213 -44.7439 0.0383556
